# xmcd
# Track frame offsets:
# 182
# 9872
# 24417
# 37202
# 49545
# 67200
# 81192
# 97552
# 108890
# 123335
#
# Disc length: 1803 seconds
# Revision: 0
# Processed by: cddbd v1.4PL0 Copyright (c) Steve Scherf et al.
# Submitted via: VisiTrax 2.9.5.180 - For more info visit www.synapsa.com
#
DISCID=7007090a
DTITLE=The Hutchens - Knock,Knock
DYEAR=1995
DGENRE=
TTITLE0=Knock,Knock
TTITLE1=She Just Wants To Dance
TTITLE2=Fear Of A Broken Heart
TTITLE3=You One And Only
TTITLE4=Billy´s Dream
TTITLE5=Wait A Ninute
TTITLE6=Even Fools Get Lucky Sometimes
TTITLE7=That Train Don´t Stop Here Anymore
TTITLE8=I´d Know
TTITLE9=I Like Simple Things
EXTD=
EXTT0=
EXTT1=
EXTT2=
EXTT3=
EXTT4=
EXTT5=
EXTT6=
EXTT7=
EXTT8=
EXTT9=
PLAYORDER=
